<?xml version="1.0" encoding="iso-8859-1"?>
<!-- Generator: Adobe Illustrator 19.0.0, SVG Export Plug-In . SVG Version: 6.00 Build 0)  -->
<svg version="1.1" id="Layer_1" xmlns="http://www.w3.org/2000/svg" xmlns:xlink="http://www.w3.org/1999/xlink" width="20pt" height="20pt" 
	 viewBox="0 0 512 512" style="enable-background:new 0 0 512 512;" fill='#ffff' xml:space="preserve">
<g>
	<g>
		<g>
			<path d="M501.044,101.888h-32.137c-6.05,0-10.956,4.906-10.956,10.956v36.337h-20.268v-32.867c0-6.05-4.906-10.956-10.956-10.956
				h-93.124c-1.901,0-3.689,0.485-5.247,1.338l-50.734,27.674c-6.075,3.313-10.648,8.6-13.132,14.812h-41.723
				c-6.051,0-10.956,4.906-10.956,10.956c0,6.05,4.905,10.956,10.956,10.956h41.723c2.484,6.212,7.057,11.498,13.132,14.812h-0.001
				l50.735,27.674c1.558,0.851,3.346,1.338,5.247,1.338h32.867v87.646h-52.405v-38.345c0-6.05-4.906-10.956-10.956-10.956H199.03
				c-6.051,0-10.956,4.906-10.956,10.956v38.345h-78.517v-56.947l39.547-8.788h42.621c6.051,0,10.956-4.906,10.956-10.956v-43.823
				c0-6.05-4.905-10.956-10.956-10.956h-32.867v-21.912h32.867c6.051,0,10.956-4.906,10.956-10.956V94.404
				c0-6.05-4.905-10.956-10.956-10.956h-42.621l-39.547-8.791V56.057c0-6.05-4.905-10.956-10.956-10.956H10.956
				C4.905,45.101,0,50.007,0,56.057v399.886c0,6.05,4.905,10.956,10.956,10.956h415.772c6.05,0,10.956-4.906,10.956-10.956v-284.85
				h20.268v36.337c0,6.05,4.906,10.956,10.956,10.956c6.05,0,10.956-4.906,10.956-10.956V123.8h21.181
				c6.05,0,10.956-4.906,10.956-10.956S507.094,101.888,501.044,101.888z M322.648,185.505l-34.533-18.839
				c-2.352-1.283-3.813-3.742-3.813-6.421v-0.218c0-2.679,1.46-5.138,3.813-6.421l34.533-18.836V185.505z M158.859,105.358h21.912
				v21.912h-21.912V105.358z M158.859,193.004h21.912v21.912h-21.912V193.004z M109.558,97.103l27.389,6.087v113.893l-27.389,6.087
				V97.103z M209.986,275.173h82.168v27.389h-82.168V275.173z M21.912,67.013h65.735v186.248H21.912V67.013z M21.912,275.173h65.735
				v27.389H21.912V275.173z M415.772,390.208h-55.51c-6.05,0-10.956,4.906-10.956,10.956c0,6.05,4.906,10.956,10.956,10.956h55.51
				v32.867H21.912v-65.735h54.414c6.051,0,10.956-4.906,10.956-10.956c0-6.05-4.905-10.956-10.956-10.956H21.912v-32.867h393.86
				V390.208z M415.772,302.562h-27.389v-87.646h27.389V302.562z M415.772,193.004h-71.213V127.27h71.213V193.004z"/>
			<path d="M119.966,379.253h1.096c6.051,0,10.956-4.906,10.956-10.956c0-6.05-4.905-10.956-10.956-10.956h-1.096
				c-6.051,0-10.956,4.906-10.956,10.956C109.01,374.347,113.915,379.253,119.966,379.253z"/>
			<path d="M319.909,412.12h1.096c6.05,0,10.956-4.906,10.956-10.956c0-6.05-4.906-10.956-10.956-10.956h-1.096
				c-6.05,0-10.956,4.906-10.956,10.956C308.953,407.214,313.859,412.12,319.909,412.12z"/>
			<path d="M161.598,379.253c2.881,0,5.708-1.172,7.746-3.211c2.038-2.037,3.21-4.863,3.21-7.745c0-2.881-1.172-5.708-3.21-7.746
				c-2.038-2.038-4.864-3.21-7.746-3.21c-2.881,0-5.708,1.171-7.746,3.21c-2.038,2.038-3.21,4.864-3.21,7.746
				c0,2.881,1.172,5.708,3.21,7.745C155.89,378.079,158.716,379.253,161.598,379.253z"/>
		</g>
	</g>
</g>
<g>
</g>
<g>
</g>
<g>
</g>
<g>
</g>
<g>
</g>
<g>
</g>
<g>
</g>
<g>
</g>
<g>
</g>
<g>
</g>
<g>
</g>
<g>
</g>
<g>
</g>
<g>
</g>
<g>
</g>
</svg>
