
<svg version="1.0" xmlns="http://www.w3.org/2000/svg"
 width="20pt" height="20pt" viewBox="0 0 1000.000000 999.000000"
 preserveAspectRatio="xMidYMid meet">

<g transform="translate(0.000000,999.000000) scale(0.100000,-0.100000)"
fill="#ffff" stroke="none">
<path d="M4595 9975 c-1437 -122 -2749 -852 -3611 -2010 -551 -742 -876 -1601
-966 -2560 -16 -169 -15 -653 1 -825 80 -863 339 -1612 799 -2315 420 -642
979 -1176 1652 -1578 156 -93 495 -261 660 -326 617 -245 1220 -361 1868 -361
1098 0 2144 351 3017 1014 259 196 610 530 807 766 680 817 1067 1759 1159
2820 16 175 15 616 0 795 -81 942 -413 1828 -965 2570 -283 380 -662 759
-1041 1041 -660 490 -1446 815 -2257 934 -334 48 -792 63 -1123 35z m-865
-1768 l0 -1231 64 -166 c261 -669 1229 -3137 1235 -3148 9 -17 -8 -58 216 513
94 242 297 760 450 1150 153 391 361 921 462 1179 l183 470 0 1228 c0 675 2
1228 5 1228 14 0 238 -79 360 -127 450 -177 894 -444 1290 -774 140 -117 434
-412 547 -549 605 -733 948 -1526 1063 -2460 23 -180 31 -680 16 -877 -104
-1302 -731 -2476 -1756 -3286 -60 -48 -113 -87 -117 -87 -4 0 -8 614 -8 1365
l0 1365 -839 0 -839 0 -487 -1303 c-268 -716 -494 -1321 -503 -1345 -30 -89
-6 -144 -441 1008 -215 568 -601 1584 -612 1613 l-11 27 -839 0 -839 0 0
-1390 c0 -792 -4 -1390 -9 -1390 -5 0 -59 38 -121 85 -350 266 -677 598 -937
952 -1010 1370 -1181 3201 -444 4738 230 478 566 945 954 1321 409 397 888
717 1407 940 163 69 528 196 542 188 4 -3 8 -559 8 -1237z"/>
<path d="M1308 6996 c-53 -33 -99 -64 -103 -67 -4 -5 1944 -1941 3155 -3134
345 -340 380 -366 526 -401 138 -32 305 8 447 109 37 26 3467 3412 3467 3423
0 6 -198 124 -208 124 -6 0 -781 -762 -1721 -1694 -1103 -1092 -1723 -1700
-1748 -1711 -60 -29 -122 -30 -202 -6 -61 18 -82 32 -144 89 -39 37 -754 742
-1587 1566 -833 825 -1576 1559 -1650 1631 l-135 133 -97 -62z"/>
</g>
</svg>
