<?xml version="1.0" encoding="utf-8"?>
<!-- Generator: Adobe Illustrator 25.2.3, SVG Export Plug-In . SVG Version: 6.00 Build 0)  -->
<svg version="1.1" id="Layer_1" xmlns="http://www.w3.org/2000/svg" xmlns:xlink="http://www.w3.org/1999/xlink" x="0px" y="0px"
	 viewBox="0 0 120 120" style="enable-background:new 0 0 120 120;" xml:space="preserve">
<style type="text/css">
	.st0{fill:none;stroke:#777777;stroke-width:2;stroke-linecap:square;stroke-dasharray:1,4;}
	.st1{fill:#29B6F6;stroke:#212121;stroke-width:1.5;}
	.st2{fill:#039BE5;}
	.st3{fill:#F5F5F5;stroke:#212121;stroke-width:1.5;stroke-linecap:round;stroke-linejoin:round;}
	.st4{fill:#C1C1C1;}
	.st5{fill:none;stroke:#557CC6;stroke-width:2;stroke-linecap:square;}
	.st6{fill:#F0F0F0;}
	.st7{fill:#557CC6;}
	.st8{fill:url(#SVGID_1_);stroke:#29F400;stroke-width:2;stroke-linecap:square;}
	.st9{fill:#29F400;}
	.st10{fill:none;stroke:#E91E63;stroke-width:2;stroke-linecap:square;}
	.st11{fill:#E91E63;}
	.st12{fill:#F5F5F5;stroke:#212121;stroke-width:1.5;}
	.st13{fill:url(#SVGID_2_);}
	.st14{fill:none;stroke:#212121;stroke-width:1.5;}
	.st15{fill:none;stroke:#212121;stroke-width:2;stroke-linecap:round;stroke-linejoin:round;}
	.st16{fill:#EF5350;stroke:#212121;stroke-width:1.5;stroke-linecap:round;stroke-linejoin:round;}
	.st17{fill:#212121;}
	.st18{fill:#039BE5;stroke:#FFFFFF;stroke-width:1.5;}
	.st19{fill:#F0F0F0;stroke:#212121;stroke-width:1.5;stroke-linecap:round;stroke-linejoin:round;}
	.st20{fill:#039BE5;stroke:#F4FFFC;stroke-width:1.5;}
	.st21{fill:#FFFFFF;}
</style>
<g id="Job_Scheduler">
	<g id="back_x5F_circle_47_">
		<circle class="st0" cx="60" cy="60" r="50"/>
	</g>
	<g id="pic_33_">
		<path class="st1" d="M79.1,45.1h-74v-13c0-2.8,2.3-5,5-5h64c2.8,0,5,2.3,5,5V45.1z"/>
		<path class="st2" d="M6.6,35.9h71v8.5h-71C6.6,44.4,6.6,35.9,6.6,35.9z"/>
		<path class="st3" d="M79.1,45.1h-74v39c0,2.8,2.3,5,5,5h64c2.8,0,5-2.3,5-5V45.1z"/>
		<path class="st4" d="M14.1,51.1h8v8h-8V51.1z M14.1,63.1h8v8h-8V63.1z M14.1,75.1h8v8h-8V75.1z M26.1,51.1h8v8h-8
			C26.1,59.1,26.1,51.1,26.1,51.1z M26.1,63.1h8v8h-8C26.1,71.1,26.1,63.1,26.1,63.1z M26.1,75.1h8v8h-8
			C26.1,83.1,26.1,75.1,26.1,75.1z M38.1,51.1h8v8h-8V51.1z M38.1,63.1h8v8h-8V63.1z M38.1,75.1h8v8h-8V75.1z M50.1,51.1h8v8h-8
			V51.1z M50.1,63.1h8v8h-8V63.1z M50.1,75.1h8v8h-8V75.1z M62.1,51.1h8v8h-8V51.1z M62.1,63.1h8v8h-8V63.1z M62.1,75.1h8v8h-8V75.1
			z"/>
		<path class="st5" d="M62.1,64h-16l-4-8"/>
		<circle class="st6" cx="42.1" cy="55.1" r="3"/>
		<path class="st7" d="M42.1,53.1c1.1,0,2,0.9,2,2s-0.9,2-2,2s-2-0.9-2-2S41,53.1,42.1,53.1 M42.1,51.1c-2.2,0-4,1.8-4,4s1.8,4,4,4
			s4-1.8,4-4S44.3,51.1,42.1,51.1z"/>
		
			<linearGradient id="SVGID_1_" gradientUnits="userSpaceOnUse" x1="30.15" y1="1025.1" x2="62.15" y2="1025.1" gradientTransform="matrix(1 0 0 1 0 -958)">
			<stop  offset="0" style="stop-color:#039BE5"/>
			<stop  offset="1" style="stop-color:#8E8E8E"/>
		</linearGradient>
		<path class="st8" d="M30.1,67.1h32"/>
		<circle class="st6" cx="30.1" cy="67.1" r="3"/>
		<path class="st9" d="M30.1,65.1c1.1,0,2,0.9,2,2s-0.9,2-2,2s-2-0.9-2-2C28.1,66.1,29,65.1,30.1,65.1 M30.1,63.1c-2.2,0-4,1.8-4,4
			s1.8,4,4,4s4-1.8,4-4S32.3,63.1,30.1,63.1z"/>
		<g>
			<path class="st10" d="M42.1,79.1l4.1-8h15.4"/>
		</g>
		<g>
			<circle class="st6" cx="42.1" cy="79.1" r="3"/>
			<path class="st11" d="M42.1,77.1c1.1,0,2,0.9,2,2s-0.9,2-2,2s-2-0.9-2-2C40.1,78.1,41,77.1,42.1,77.1 M42.1,75.1
				c-2.2,0-4,1.8-4,4s1.8,4,4,4s4-1.8,4-4S44.3,75.1,42.1,75.1z"/>
		</g>
		<g>
			<circle class="st12" cx="79.1" cy="61.1" r="22"/>
			
				<linearGradient id="SVGID_2_" gradientUnits="userSpaceOnUse" x1="76.3506" y1="1002.9494" x2="95.3506" y2="1021.9494" gradientTransform="matrix(1 0 0 1 0 -958)">
				<stop  offset="8.821522e-02" style="stop-color:#00E922"/>
				<stop  offset="0.1258" style="stop-color:#0EE920"/>
				<stop  offset="0.1966" style="stop-color:#32E91B"/>
				<stop  offset="0.293" style="stop-color:#6DE912"/>
				<stop  offset="0.4101" style="stop-color:#BDE906"/>
				<stop  offset="0.4692" style="stop-color:#E8E900"/>
				<stop  offset="0.5529" style="stop-color:#EDBA01"/>
				<stop  offset="0.7417" style="stop-color:#F84605"/>
				<stop  offset="0.8502" style="stop-color:#FF0007"/>
			</linearGradient>
			<path class="st13" d="M79.1,61.1v-19c5,0,9.9,2,13.4,5.6c3.6,3.5,5.6,8.4,5.6,13.4H79.1z"/>
			<circle class="st14" cx="79.1" cy="61.1" r="22"/>
			<path class="st15" d="M79.1,61.2V44.1 M79.1,61.1h14"/>
			<circle class="st16" cx="79.1" cy="61.1" r="4"/>
			<circle class="st17" cx="62.1" cy="61.1" r="1.5"/>
			<circle class="st17" cx="79.1" cy="78.1" r="1.5"/>
			<circle class="st17" cx="67.1" cy="73.1" r="1.5"/>
			<circle class="st17" cx="91.1" cy="73.1" r="1.5"/>
			<circle class="st17" cx="67.1" cy="49.1" r="1.5"/>
			<circle class="st17" cx="91.1" cy="49.1" r="1.5"/>
		</g>
		<path id="gear_x5F_big_4_" class="st18" d="M109.8,25.9c0-0.1,0-0.3,0.1-0.4l2.2-1.8c0.1-0.1,0.2-0.3,0.1-0.4l-1.2-2.5
			c-0.1-0.1-0.2-0.2-0.4-0.2l-2.8,0.5c-0.1,0-0.3,0-0.4-0.2l-0.5-0.6c-0.1-0.1-0.1-0.3-0.1-0.4l0.8-2.7c0-0.1,0-0.3-0.1-0.4
			l-2.4-1.5c-0.1-0.1-0.3,0-0.4,0l-2.1,1.9c-0.1,0.1-0.3,0.1-0.4,0.1l-0.7-0.2c-0.1,0-0.3-0.2-0.3-0.3l-0.8-2.8
			c0-0.1-0.2-0.3-0.3-0.3h-2.8c-0.1,0-0.3,0.1-0.3,0.3l-0.7,2.7c0,0.1-0.1,0.3-0.2,0.3H96c-0.4,0.1-0.9,0.2-0.9,0.2
			c-0.1,0-0.3,0-0.4-0.1l-2.1-1.9c-0.1-0.1-0.3-0.1-0.4,0l-2.3,1.4c-0.1,0.1-0.2,0.3-0.1,0.4l0.9,2.7c0,0.1,0,0.3-0.1,0.4l-0.7,0.7
			c-0.3,0.3-0.5,0.3-0.6,0.3l-2.8-0.5c-0.1,0-0.3,0.1-0.4,0.2L85,23.2c-0.1,0.1,0,0.3,0.1,0.4l2.2,1.8c0.1,0.1,0.2,0.3,0.1,0.4
			L87.2,27c0,0.1-0.1,0.3-0.3,0.4l-2.6,1.1c-0.1,0.1-0.2,0.2-0.2,0.4c0,0,0.1,1.8,0.4,2.8h0.3l2.8,0.3c0.1,0,0.3,0.1,0.3,0.3
			l0.5,1.3c0.1,0.1,0,0.3,0,0.4l-1.6,2.4c-0.1,0.1-0.1,0.3,0,0.4l1.6,1.9c0.1,0.1,0.3,0.1,0.4,0.1l2.5-1.2c0.1-0.1,0.3,0,0.4,0
			l1.2,0.8c0.1,0.1,0.2,0.2,0.2,0.4v2.7c0,0.1,0.1,0.3,0.2,0.3l2.4,0.7c0.1,0,0.3,0,0.4-0.2l1.5-2.4c0.1-0.1,0.2-0.2,0.4-0.2h1.4
			c0.1,0,0.3,0.1,0.4,0.2l1.5,2.4c0.1,0.1,0.2,0.2,0.4,0.2c0,0,0.1,0,0.2-0.1c0.8-0.2,2.1-0.7,2.1-0.7c0.1,0,0.2-0.2,0.2-0.3
			l-0.1-2.9c0-0.1,0.1-0.3,0.2-0.4l1.1-0.7c0.1-0.1,0.3-0.1,0.4,0l2.5,1.2c0.1,0.1,0.3,0,0.4-0.1l1.6-2c0.1-0.1,0.1-0.3,0-0.4
			l-1.6-2.4c-0.1-0.1-0.1-0.3,0-0.4l0.4-1.1c0-0.1,0.2-0.3,0.3-0.3l2.8-0.4c0.1,0,0.3-0.1,0.3-0.3l0.3-2.6c0-0.1-0.1-0.3-0.2-0.4
			l-2.6-1.1l-0.3-0.3C109.8,26.8,109.9,25.9,109.8,25.9z M100.2,35.3c-3.9,0.9-7.8-1.5-8.8-5.4c-0.9-3.9,1.5-7.8,5.4-8.8
			c3.9-0.9,7.8,1.5,8.8,5.4S104.1,34.3,100.2,35.3z"/>
		<circle class="st3" cx="63.1" cy="36.1" r="4"/>
		<circle class="st19" cx="21.1" cy="36.1" r="4"/>
		<path id="gear_x5F_big_1_" class="st18" d="M56.9,10.3c0-0.1,0-0.2,0.1-0.3l1.6-1.3c0.1-0.1,0.1-0.2,0.1-0.3l-0.9-1.8
			c0-0.1-0.2-0.1-0.3-0.1l-2.1,0.3c-0.1,0-0.2,0-0.3-0.1l-0.4-0.4c-0.1-0.1-0.1-0.2-0.1-0.3l0.6-2c0-0.1,0-0.2-0.1-0.3l-1.7-1.1H53
			L51.5,4c-0.1,0.1-0.2,0.1-0.3,0.1l-0.5-0.2c-0.1,0-0.2-0.1-0.2-0.2l-0.5-2c0-0.1-0.1-0.2-0.2-0.2h-2c-0.1,0-0.2,0.1-0.2,0.2
			l-0.5,2c0,0.1-0.1,0.2-0.1,0.2l-0.6,0.2c-0.1,0-0.2,0-0.3-0.1l-1.6-1.4c-0.1-0.1-0.2-0.1-0.3,0l-1.7,1c-0.1,0.1-0.1,0.2-0.1,0.3
			L43,5.8c0,0.1,0,0.2,0,0.3l-0.5,0.5c-0.1,0.1-0.2,0.1-0.3,0.1L40,6.5c-0.1,0-0.2,0-0.3,0.1l-0.8,1.7c0,0.1,0,0.2,0.1,0.3l1.6,1.3
			c0.1,0.1,0.1,0.2,0.1,0.3l-0.1,0.9c0,0.1-0.1,0.2-0.2,0.3l-2,0.8c-0.1,0-0.2,0.2-0.2,0.3c0,0,0.1,1.3,0.3,2h0.2l2,0.2
			c0.1,0,0.2,0.1,0.2,0.2l0.4,0.9v0.3l-1.1,1.7c-0.1,0.1-0.1,0.2,0,0.3l1.2,1.4c0.1,0.1,0.2,0.1,0.3,0.1l1.8-0.9h0.3l0.9,0.6
			c0.1,0.1,0.2,0.2,0.2,0.3v2c0,0.1,0.1,0.2,0.2,0.2l1.7,0.5c0.1,0,0.2,0,0.3-0.1l1.1-1.8c0.1-0.1,0.2-0.2,0.3-0.2h1
			c0.1,0,0.2,0.1,0.3,0.1l1.1,1.7c0.1,0.1,0.2,0.1,0.3,0.1h0.2C52,22,53,21.6,53,21.6c0.1,0,0.2-0.1,0.2-0.2L53,19.3
			c0-0.1,0.1-0.2,0.2-0.3l0.8-0.5c0.1-0.1,0.2-0.1,0.3,0l1.8,0.9c0.1,0,0.2,0,0.3-0.1l1.2-1.4c0.1-0.1,0.1-0.2,0-0.3l-1.2-1.7
			c-0.1-0.1-0.1-0.2,0-0.3l0.3-0.8c0-0.1,0.1-0.2,0.2-0.2l2-0.3c0.1,0,0.2-0.1,0.2-0.2l0.2-1.9c0-0.1-0.1-0.2-0.2-0.3l-1.9-0.8
			c-0.1,0-0.2-0.2-0.2-0.3C57.1,10.8,56.9,10.3,56.9,10.3z M49.9,17.1c-2.8,0.7-5.7-1.1-6.3-3.9c-0.7-2.8,1.1-5.7,3.9-6.3
			c2.8-0.7,5.7,1.1,6.3,3.9C54.5,13.6,52.8,16.4,49.9,17.1z"/>
		<path id="gear_x5F_big_3_" class="st20" d="M100.8,96.4c0-0.1,0-0.2,0.1-0.3l1.6-1.3c0.1-0.1,0.1-0.2,0.1-0.3l-0.9-1.8
			c0-0.1-0.2-0.1-0.3-0.1l-2.1,0.3c-0.1,0-0.2,0-0.3-0.1l-0.4-0.4c-0.1-0.1-0.1-0.2-0.1-0.3l0.6-2c0-0.1,0-0.2-0.1-0.3l-1.7-1.1H97
			l-1.5,1.4c-0.1,0.1-0.2,0.1-0.3,0.1L94.6,90c-0.1,0-0.2-0.1-0.2-0.2l-0.5-2c0-0.1-0.1-0.2-0.2-0.2h-2c-0.1,0-0.2,0.1-0.2,0.2
			l-0.5,2c0,0.1-0.1,0.2-0.1,0.2l-0.6,0.2c-0.1,0-0.2,0-0.3-0.1l-1.6-1.4c-0.1-0.1-0.2-0.1-0.3,0l-1.7,1c-0.1,0.1-0.1,0.2-0.1,0.3
			l0.6,1.9c0,0.1,0,0.2-0.1,0.3l-0.5,0.5c-0.1,0.1-0.2,0.1-0.3,0.1l-2.2-0.2c-0.1,0-0.2,0-0.3,0.1l-0.8,1.7c0,0.1,0,0.2,0.1,0.3
			l1.6,1.3c0.1,0.1,0.1,0.2,0.1,0.3l-0.1,0.9c0,0.1-0.1,0.2-0.2,0.3l-2,0.8c-0.1,0-0.2,0.2-0.2,0.3c0,0,0.1,1.3,0.3,2h0.2l2,0.2
			c0.1,0,0.2,0.1,0.2,0.2l0.4,0.9v0.3l-1.1,1.7c-0.1,0.1-0.1,0.2,0,0.3l1.2,1.4c0.1,0.1,0.2,0.1,0.3,0.1l1.8-0.9h0.3l0.9,0.6
			c0.1,0.1,0.2,0.2,0.2,0.3v2c0,0.1,0.1,0.2,0.2,0.2l1.7,0.5c0.1,0,0.2,0,0.3-0.1l1.1-1.8c0.1-0.1,0.2-0.2,0.3-0.2h1
			c0.1,0,0.2,0.1,0.3,0.1l1.1,1.7c0.1,0.1,0.2,0.1,0.3,0.1h0.2c0.6-0.1,1.6-0.5,1.6-0.5c0.1,0,0.2-0.1,0.2-0.2l-0.1-2.1
			c0-0.1,0.1-0.2,0.2-0.3l0.8-0.5c0.1-0.1,0.2-0.1,0.3,0l1.8,0.9c0.1,0,0.2,0,0.3-0.1l1.2-1.4c0.1-0.1,0.1-0.2,0-0.3l-1.2-1.7
			c-0.1-0.1-0.1-0.2,0-0.3l0.3-0.8c0-0.1,0.1-0.2,0.2-0.2l2-0.3c0.1,0,0.2-0.1,0.2-0.2l0.2-1.9c0-0.1-0.1-0.2-0.2-0.3l-1.9-0.8
			c-0.1,0-0.2-0.2-0.2-0.3C101,96.9,100.8,96.4,100.8,96.4z M93.8,103.2c-2.8,0.7-5.7-1.1-6.3-3.9c-0.7-2.8,1.1-5.7,3.9-6.3
			c2.8-0.7,5.7,1.1,6.3,3.9C98.3,99.7,96.7,102.5,93.8,103.2z"/>
		<g>
			<path class="st21" d="M37.5,32h2.4l-1.7,8.4h-2.4L37.5,32z"/>
			<path class="st21" d="M46.4,36h2.1l-0.7,3.5c-0.9,0.6-2,1-3.3,1c-2.6,0-4.2-1.5-4.2-3.7c0-2.9,2.1-5,5.3-5c1.7,0,2.9,0.5,3.7,1.5
				l-1.7,1.3c-0.6-0.7-1.2-0.9-2.1-0.9c-1.7,0-2.8,1.2-2.8,2.9c0,1.1,0.8,1.9,2.1,1.9c0.4,0,0.8-0.1,1.1-0.2L46.4,36z"/>
		</g>
	</g>
</g>
</svg>
